<?xml version="1.0" standalone="no"?>
<!DOCTYPE svg PUBLIC "-//W3C//DTD SVG 20010904//EN"
 "http://www.w3.org/TR/2001/REC-SVG-20010904/DTD/svg10.dtd">
<svg version="1.0" xmlns="http://www.w3.org/2000/svg"
 width="1254.000000pt" height="1254.000000pt" viewBox="0 0 1254.000000 1254.000000"
 preserveAspectRatio="xMidYMid meet">

<g transform="translate(0.000000,1254.000000) scale(0.100000,-0.100000)"
fill="#000000" stroke="none">
<path d="M4545 8839 c-592 -56 -1093 -277 -1487 -657 -372 -360 -605 -811
-695 -1349 -26 -155 -26 -599 0 -763 170 -1074 971 -1826 2077 -1951 157 -18
530 -15 680 5 493 66 920 250 1278 551 57 48 106 93 109 100 4 13 -493 765
-506 765 -3 0 -37 -26 -76 -57 -214 -172 -467 -292 -750 -355 -89 -20 -129
-22 -360 -22 -233 -1 -271 2 -362 22 -420 92 -744 333 -927 692 -103 200 -146
392 -147 645 -1 256 38 438 135 640 235 486 719 766 1322 765 419 -1 774 -124
1103 -384 59 -47 65 -49 75 -32 6 11 120 183 254 384 l243 365 -33 35 c-49 50
-201 172 -298 237 -105 70 -374 203 -495 244 -190 64 -372 101 -580 121 -127
12 -429 11 -560 -1z"/>
<path d="M8260 8813 c-102 -10 -318 -48 -415 -73 -514 -132 -874 -398 -1065
-785 -100 -203 -137 -383 -127 -629 9 -217 47 -372 129 -526 121 -225 294
-382 562 -511 221 -105 427 -166 941 -274 368 -77 489 -111 610 -170 118 -57
185 -117 227 -203 30 -60 33 -75 33 -152 -1 -101 -14 -149 -57 -214 -111 -168
-376 -250 -778 -241 -412 10 -781 102 -1155 290 -71 35 -132 61 -136 57 -14
-15 -336 -769 -341 -798 -4 -23 88 -74 277 -155 318 -135 616 -213 1005 -261
141 -17 653 -17 780 1 329 45 612 132 811 247 165 96 340 252 442 395 105 147
182 355 208 555 16 129 6 381 -19 499 -54 251 -195 475 -390 623 -254 192
-510 285 -1157 421 -488 102 -584 130 -709 203 -201 118 -265 310 -172 514
102 223 479 334 951 279 329 -38 580 -112 873 -258 134 -67 153 -74 161 -59 5
9 64 145 131 302 67 157 142 329 166 383 24 53 44 101 44 105 0 12 -165 107
-300 170 -281 134 -621 227 -960 262 -88 9 -490 11 -570 3z"/>
</g>
</svg>
